<svg width="24" height="24" viewBox="0 0 24 24" fill="none" xmlns="http://www.w3.org/2000/svg">
<path d="M15.002 15.6452C15.0494 15.1469 15.0351 14.6504 14.963 14.1656L16.0836 13.6662C15.9777 13.1234 15.8113 12.5879 15.5805 12.0697C15.3497 11.5519 15.063 11.0701 14.7308 10.628L13.6095 11.127C13.2975 10.7496 12.9381 10.4071 12.536 10.1087L12.9755 8.96351C12.5165 8.6548 12.0204 8.39387 11.4908 8.19063C10.9634 7.98813 10.4217 7.84811 9.87082 7.77057L9.43091 8.91683C8.93257 8.86942 8.43606 8.88376 7.95132 8.95579L7.45481 7.84076C6.34566 8.0587 5.30928 8.52911 4.41954 9.20129L4.91274 10.309C4.53457 10.621 4.19205 10.9808 3.89364 11.3825L2.75141 10.9444C2.43976 11.4023 2.17847 11.8988 1.97486 12.428C1.7731 12.9572 1.63492 13.5004 1.55737 14.0476L2.70253 14.4872C2.65513 14.9855 2.66946 15.482 2.74149 15.9668L1.62095 16.4659C1.7268 17.009 1.89328 17.5441 2.12407 18.0623C2.35524 18.5805 2.64153 19.062 2.97412 19.5041L4.09466 19.005C4.40668 19.3828 4.7661 19.7253 5.16853 20.0237L4.72899 21.1696C5.18801 21.4787 5.68414 21.7393 6.21373 21.9425C6.7411 22.145 7.28281 22.285 7.83371 22.3626L8.27362 21.2163C8.77197 21.2633 9.26847 21.249 9.75322 21.177L10.2497 22.2916C11.3589 22.0737 12.396 21.6033 13.2854 20.9311L12.7918 19.8234C13.1696 19.5114 13.5125 19.152 13.8109 18.7499L14.9524 19.188C15.264 18.7301 15.5253 18.2336 15.7289 17.7047C15.9322 17.1755 16.07 16.632 16.1475 16.0844L15.002 15.6452ZM11.9579 16.2578C11.2997 17.9734 9.37578 18.8297 7.65988 18.1715C5.94618 17.5136 5.08878 15.5901 5.74662 13.8749C6.40483 12.1597 8.32875 11.3034 10.0436 11.9609C11.7587 12.6188 12.6158 14.543 11.9579 16.2578Z" fill="white"/>
<path d="M21.2057 6.51339C21.2057 6.29142 21.183 6.07422 21.144 5.86327L22.0029 5.36713C21.7949 4.57625 21.3818 3.86805 20.8169 3.3087L19.9558 3.80594C19.6273 3.52443 19.2466 3.30393 18.8302 3.15692V2.16354C18.4509 2.05954 18.0536 2 17.6424 2C17.2311 2 16.8342 2.06027 16.4546 2.16354V3.15729C16.0382 3.30429 15.6578 3.52517 15.3289 3.80631L14.4674 3.30907C13.9033 3.86842 13.4899 4.57661 13.2815 5.3675L14.1407 5.86363C14.1018 6.07495 14.0786 6.29142 14.0786 6.51376C14.0786 6.7361 14.1018 6.95293 14.1407 7.16389L13.2815 7.66002C13.4899 8.45091 13.9033 9.15947 14.4674 9.71845L15.3285 9.22121C15.6574 9.50272 16.0378 9.72323 16.4542 9.87023V10.864C16.8338 10.9676 17.2308 11.0275 17.642 11.0275C18.0532 11.0275 18.4509 10.9672 18.8298 10.864V9.87023C19.2462 9.72323 19.6269 9.50235 19.9555 9.22121L20.8166 9.71845C21.3814 9.1591 21.7945 8.45091 22.0025 7.66002L21.1436 7.16389C21.183 6.9522 21.2057 6.73574 21.2057 6.51339ZM17.6427 8.17674C16.724 8.17674 15.979 7.43217 15.979 6.51376C15.979 5.59535 16.724 4.85041 17.6427 4.85041C18.5604 4.85041 19.3054 5.59498 19.3054 6.51339C19.3054 7.4318 18.5604 8.17674 17.6427 8.17674Z" fill="white"/>
</svg>
