<svg width="24" height="24" viewBox="0 0 24 24" fill="none" xmlns="http://www.w3.org/2000/svg">
<path d="M21.784 16.3995C21.6099 15.9871 21.3257 15.5104 20.9866 14.9513L20.3175 13.8422C20.1617 13.5764 20.0883 13.4664 20.0333 13.3564C19.685 12.7148 19.4467 12.0182 19.3367 11.3032C19.3184 11.1749 19.3001 11.0374 19.2634 10.7166L18.9884 8.26929C18.6218 4.96953 16.0645 2.40305 12.7647 2.04558C8.90581 1.60561 5.42273 4.40124 5.0011 8.26013L4.72612 10.7074C4.69862 11.0283 4.68029 11.1566 4.66196 11.2941C4.55196 12.0182 4.31365 12.7056 3.96534 13.3473C3.91034 13.4572 3.83701 13.5672 3.69036 13.8147L3.01207 14.9513C2.6821 15.5104 2.38879 15.9871 2.21463 16.3995C1.93965 17.0412 1.93049 17.5911 2.17797 18.0861C2.20547 18.1411 2.23296 18.1869 2.26963 18.2419C2.56294 18.7094 3.03957 18.9843 3.72702 19.076C4.17616 19.1402 4.73528 19.1402 5.38607 19.1402H7.99838C8.26419 20.0201 8.73166 20.7809 9.36411 21.34C10.1157 22.0091 11.0507 22.3758 12.0131 22.3758C12.9755 22.3758 13.9105 22.0091 14.6621 21.34C15.2854 20.7809 15.7528 20.0201 16.0278 19.1402H18.6309C19.2817 19.1402 19.8409 19.1402 20.29 19.076C20.9774 18.9752 21.4541 18.7002 21.7474 18.2419C21.784 18.1961 21.8115 18.1411 21.8299 18.0861C22.0682 17.5911 22.059 17.0412 21.784 16.3995ZM13.8371 19.1402C13.6905 19.4151 13.5071 19.6535 13.2963 19.8368C12.5447 20.5059 11.4448 20.5059 10.6932 19.8368C10.4824 19.6535 10.3082 19.4151 10.1524 19.1402H13.8371ZM19.8867 17.087C19.5934 17.1145 19.1809 17.1145 18.5576 17.1145H5.45023C4.82694 17.1145 4.41447 17.1145 4.12116 17.087C4.24948 16.8212 4.4603 16.4637 4.78111 15.9321L5.44107 14.8321C5.57856 14.603 5.66105 14.4563 5.74354 14.3097C6.20184 13.4664 6.51349 12.5498 6.66014 11.5965C6.68764 11.3766 6.71514 11.1657 6.74264 10.9274L7.01762 8.48011C7.30176 5.93196 9.44661 4.0071 12.0131 4.0071C14.5796 4.0071 16.7244 5.93196 17.0086 8.48011L17.2927 11.0283C17.3202 11.2757 17.3385 11.4407 17.366 11.5965C17.5127 12.5498 17.8243 13.4572 18.2826 14.3097C18.3651 14.4563 18.4476 14.603 18.5851 14.8321L19.2451 15.9321C19.5475 16.4637 19.7584 16.8212 19.8867 17.087Z" fill="white"/>
</svg>
