<svg width="32" height="32" viewBox="0 0 32 32" fill="none" xmlns="http://www.w3.org/2000/svg">
<path fill-rule="evenodd" clip-rule="evenodd" d="M19.8132 8.74233V11.1593L21.3446 9.62545V6.77467L20.5789 6H6.79632L6.03063 6.77467V7.52765L6 7.54934V23.492L6.5513 24.2047L14.2083 26.8696L15.1884 26.1414V24.592H20.5789L21.3446 23.8174V21.0131L19.8132 19.4637V23.0427H15.1884V10.1987L14.683 9.48601L9.11792 7.54934H19.8132V8.74233ZM13.657 25.0259L7.53139 22.9497V8.66486L13.657 10.741V25.0259ZM23.6417 16.0397H16.0306V14.4904H23.5804L21.1302 12.0114L22.2175 10.9269L26 14.7383V15.8383L22.1868 19.6806L21.1149 18.5961L23.6417 16.0397Z" fill="white" fill-opacity="0.9"/>
</svg>
