<svg width="24" height="24" viewBox="0 0 24 24" fill="none" xmlns="http://www.w3.org/2000/svg">
<path fill-rule="evenodd" clip-rule="evenodd" d="M6.33753 15.6318C7.88984 14.7384 9.76381 14.2678 11.6702 14.2678C13.5766 14.2678 15.4505 14.7384 17.0028 15.6318C18.5546 16.5248 19.7349 17.8145 20.2818 19.3454C20.4676 19.8655 20.1966 20.4377 19.6765 20.6235C19.1564 20.8093 18.5842 20.5383 18.3984 20.0183C18.0405 19.0166 17.227 18.0683 16.0052 17.3652C14.784 16.6624 13.2597 16.2678 11.6702 16.2678C10.0806 16.2678 8.55634 16.6624 7.33512 17.3652C6.11333 18.0683 5.29985 19.0166 4.94198 20.0183C4.75617 20.5383 4.18392 20.8093 3.66383 20.6235C3.14374 20.4377 2.87276 19.8655 3.05857 19.3454C3.60551 17.8145 4.78581 16.5248 6.33753 15.6318Z" fill="white"/>
<path fill-rule="evenodd" clip-rule="evenodd" d="M11.6695 5C10.029 5 8.69922 6.32982 8.69922 7.97024C8.69922 9.61065 10.029 10.9405 11.6695 10.9405C13.3099 10.9405 14.6397 9.61065 14.6397 7.97024C14.6397 6.32982 13.3099 5 11.6695 5ZM6.69922 7.97024C6.69922 5.22525 8.92447 3 11.6695 3C14.4144 3 16.6397 5.22525 16.6397 7.97024C16.6397 10.7152 14.4144 12.9405 11.6695 12.9405C8.92447 12.9405 6.69922 10.7152 6.69922 7.97024Z" fill="white"/>
</svg>
